<svg width="64" height="64" viewBox="0 0 64 64" fill="none" xmlns="http://www.w3.org/2000/svg">
<path fill-rule="evenodd" clip-rule="evenodd" d="M32 64.0009C49.6731 64.0009 64 49.674 64 32.0009C64 14.3277 49.6731 0.000854492 32 0.000854492C14.3269 0.000854492 0 14.3277 0 32.0009C0 49.674 14.3269 64.0009 32 64.0009Z" fill="white"/>
<path d="M15.3905 45.7454C15.375 45.7454 15.3588 45.7454 15.3434 45.7447C14.5662 45.7187 13.9574 45.0683 13.9827 44.2912C14.1819 38.2523 17.4438 33.0927 22.4944 30.8261C27.849 28.4229 34.9726 28.3729 40.6419 30.6958C41.3606 30.9908 41.7055 31.8129 41.4105 32.5323C41.1149 33.2517 40.2941 33.5945 39.574 33.301C34.5833 31.2561 28.3312 31.2921 23.6481 33.3946C19.5858 35.2178 16.9609 39.4285 16.7976 44.3834C16.7716 45.145 16.1465 45.7454 15.3905 45.7454Z" fill="#2ED8B6"/>
<path d="M31.7394 50.2969C27.2246 50.2969 22.7146 49.5317 18.4489 48.0239L15.9423 47.1377C15.2095 46.8787 14.8252 46.0741 15.0842 45.3413C15.3433 44.6086 16.1485 44.2256 16.8813 44.4833L19.3879 45.3695C25.0988 47.3883 31.284 47.9747 37.2736 47.0645C38.0444 46.9498 38.7602 47.4763 38.8771 48.245C38.9939 49.0136 38.4653 49.7316 37.6966 49.8485C35.7243 50.1483 33.7315 50.2969 31.7394 50.2969Z" fill="#2ED8B6"/>
<path d="M16.4124 47.2187C16.2562 47.2187 16.0985 47.1926 15.9429 47.1377C14.7491 46.7154 13.9614 45.5807 13.9818 44.3143C13.9952 43.545 14.6224 42.9297 15.3889 42.9297H15.4129C16.19 42.9424 16.8101 43.583 16.7975 44.3608C16.7961 44.4157 16.8306 44.465 16.8819 44.4833C17.6154 44.743 17.999 45.5469 17.74 46.2804C17.5352 46.8576 16.9918 47.2187 16.4124 47.2187Z" fill="#2ED8B6"/>
<path d="M31.7526 31.8671C28.5744 31.8671 25.5835 30.1925 23.9462 27.4965C21.9725 24.2501 22.2857 19.9344 24.7058 17.0027C26.4092 14.9374 29.0454 13.7048 31.7568 13.7048C32.8176 13.7048 33.8545 13.8879 34.8407 14.249C38.4067 15.5547 40.8035 18.9849 40.8035 22.7839C40.8035 27.0819 37.7513 30.826 33.5455 31.6862C32.9584 31.8066 32.3544 31.8671 31.7526 31.8671ZM31.7568 16.5205C29.8767 16.5205 28.0521 17.3708 26.8773 18.7948C25.2069 20.8178 24.9908 23.7947 26.3522 26.0345C27.4827 27.8957 29.5522 29.0515 31.7526 29.0515C32.1658 29.0515 32.579 29.0099 32.9809 28.9276C35.8353 28.344 37.9871 25.7023 37.9871 22.7839C37.9871 20.2026 36.2949 17.7798 33.8721 16.8928C33.1977 16.6451 32.4861 16.5205 31.7568 16.5205Z" fill="#2ED8B6"/>
<path d="M44.3875 41.8535H35.9405C35.1634 41.8535 34.5327 41.2228 34.5327 40.4457C34.5327 39.6685 35.1634 39.0378 35.9405 39.0378H44.3875C45.1646 39.0378 45.7953 39.6685 45.7953 40.4457C45.7953 41.2228 45.1646 41.8535 44.3875 41.8535Z" fill="#2ED8B6"/>
<path d="M40.1637 46.0769C39.3866 46.0769 38.7559 45.4462 38.7559 44.6691V36.2222C38.7559 35.4451 39.3866 34.8144 40.1637 34.8144C40.9408 34.8144 41.5715 35.4451 41.5715 36.2222V44.6691C41.5715 45.4462 40.9408 46.0769 40.1637 46.0769Z" fill="#2ED8B6"/>
<path d="M40.0977 50.2934C40.097 50.2934 40.0977 50.2934 40.0977 50.2934C39.1517 50.2934 38.2105 50.1533 37.299 49.8766C33.8118 48.8187 31.1313 45.8207 30.4725 42.2392C29.8009 38.5944 31.2791 34.7989 34.2398 32.5689C35.925 31.2998 38.0353 30.6008 40.1815 30.6008C41.7343 30.6008 43.2752 30.9675 44.6351 31.6623C47.9055 33.3298 50.0186 36.7776 50.0186 40.4457C50.0186 43.0938 48.9522 45.5835 47.0172 47.4566C45.1546 49.2593 42.6325 50.2934 40.0977 50.2934ZM40.1815 33.4164C38.642 33.4164 37.1336 33.9141 35.9334 34.8179C33.8182 36.4115 32.7616 39.1244 33.2416 41.7289C33.7126 44.2862 35.6265 46.4261 38.1169 47.1821C40.5173 47.912 43.2224 47.2116 45.0589 45.4336C46.4414 44.0954 47.203 42.3237 47.203 40.4457C47.203 37.825 45.6924 35.362 43.3561 34.1703C42.3897 33.6769 41.2923 33.4164 40.1815 33.4164Z" fill="#2ED8B6"/>
</svg>
