<svg width="64" height="64" viewBox="0 0 64 64" fill="none" xmlns="http://www.w3.org/2000/svg">
<path fill-rule="evenodd" clip-rule="evenodd" d="M32 64.0009C49.6731 64.0009 64 49.674 64 32.0009C64 14.3277 49.6731 0.000854492 32 0.000854492C14.3269 0.000854492 0 14.3277 0 32.0009C0 49.674 14.3269 64.0009 32 64.0009Z" fill="white"/>
<path d="M31.9963 24.9497C31.2186 24.9497 30.5874 24.3185 30.5874 23.5408V20.7231C30.5874 19.9454 31.2186 19.3142 31.9963 19.3142C32.774 19.3142 33.4052 19.9454 33.4052 20.7231V23.5408C33.4052 24.3185 32.774 24.9497 31.9963 24.9497Z" fill="#FFB64D"/>
<path d="M31.9963 44.674C31.2186 44.674 30.5874 44.0428 30.5874 43.2651V40.4474C30.5874 39.6697 31.2186 39.0385 31.9963 39.0385C32.774 39.0385 33.4052 39.6697 33.4052 40.4474V43.2651C33.4052 44.0428 32.774 44.674 31.9963 44.674Z" fill="#FFB64D"/>
<path d="M29.1783 41.8563C26.8473 41.8563 24.9517 39.9606 24.9517 37.6296C24.9517 36.8519 25.5828 36.2208 26.3605 36.2208C27.1382 36.2208 27.7694 36.8519 27.7694 37.6296C27.7694 38.4066 28.4013 39.0385 29.1783 39.0385C29.956 39.0385 30.5872 39.6697 30.5872 40.4474C30.5872 41.2251 29.956 41.8563 29.1783 41.8563Z" fill="#FFB64D"/>
<path d="M34.8139 41.8563H29.1784C28.4007 41.8563 27.7695 41.2251 27.7695 40.4474C27.7695 39.6697 28.4007 39.0385 29.1784 39.0385H34.8139C35.5916 39.0385 36.2228 39.6697 36.2228 40.4474C36.2228 41.2251 35.5916 41.8563 34.8139 41.8563Z" fill="#FFB64D"/>
<path d="M37.6314 27.7675C36.8537 27.7675 36.2225 27.1363 36.2225 26.3586C36.2225 25.5816 35.5907 24.9497 34.8137 24.9497C34.036 24.9497 33.4048 24.3185 33.4048 23.5408C33.4048 22.7631 34.036 22.132 34.8137 22.132C37.1446 22.132 39.0403 24.0276 39.0403 26.3586C39.0403 27.1363 38.4091 27.7675 37.6314 27.7675Z" fill="#FFB64D"/>
<path d="M34.8139 24.9497H29.1784C28.4007 24.9497 27.7695 24.3185 27.7695 23.5408C27.7695 22.7631 28.4007 22.132 29.1784 22.132H34.8139C35.5916 22.132 36.2228 22.7631 36.2228 23.5408C36.2228 24.3185 35.5916 24.9497 34.8139 24.9497Z" fill="#FFB64D"/>
<path d="M26.3605 27.7675C25.5828 27.7675 24.9517 27.1363 24.9517 26.3586C24.9517 24.0276 26.8473 22.132 29.1783 22.132C29.956 22.132 30.5872 22.7631 30.5872 23.5408C30.5872 24.3185 29.956 24.9497 29.1783 24.9497C28.4013 24.9497 27.7694 25.5816 27.7694 26.3586C27.7694 27.1363 27.1382 27.7675 26.3605 27.7675Z" fill="#FFB64D"/>
<path d="M26.3605 30.5852C25.5828 30.5852 24.9517 29.954 24.9517 29.1763V26.3586C24.9517 25.5809 25.5828 24.9497 26.3605 24.9497C27.1382 24.9497 27.7694 25.5809 27.7694 26.3586V29.1763C27.7694 29.954 27.1382 30.5852 26.3605 30.5852Z" fill="#FFB64D"/>
<path d="M29.1783 33.403C26.8473 33.403 24.9517 31.5074 24.9517 29.1764C24.9517 28.3987 25.5828 27.7675 26.3605 27.7675C27.1382 27.7675 27.7694 28.3987 27.7694 29.1764C27.7694 29.9534 28.4013 30.5853 29.1783 30.5853C29.956 30.5853 30.5872 31.2164 30.5872 31.9941C30.5872 32.7718 29.956 33.403 29.1783 33.403Z" fill="#FFB64D"/>
<path d="M34.8139 33.403H29.1784C28.4007 33.403 27.7695 32.7718 27.7695 31.9941C27.7695 31.2164 28.4007 30.5852 29.1784 30.5852H34.8139C35.5916 30.5852 36.2228 31.2164 36.2228 31.9941C36.2228 32.7718 35.5916 33.403 34.8139 33.403Z" fill="#FFB64D"/>
<path d="M34.8137 41.8563C34.036 41.8563 33.4048 41.2251 33.4048 40.4474C33.4048 39.6697 34.036 39.0385 34.8137 39.0385C35.5907 39.0385 36.2225 38.4066 36.2225 37.6296C36.2225 36.8519 36.8537 36.2208 37.6314 36.2208C38.4091 36.2208 39.0403 36.8519 39.0403 37.6296C39.0403 39.9599 37.1446 41.8563 34.8137 41.8563Z" fill="#FFB64D"/>
<path d="M37.6315 39.0385C36.8538 39.0385 36.2227 38.4073 36.2227 37.6296V34.8118C36.2227 34.0341 36.8538 33.403 37.6315 33.403C38.4092 33.403 39.0404 34.0341 39.0404 34.8118V37.6296C39.0404 38.4073 38.4092 39.0385 37.6315 39.0385Z" fill="#FFB64D"/>
<path d="M37.6314 36.2207C36.8537 36.2207 36.2225 35.5895 36.2225 34.8118C36.2225 34.0348 35.5907 33.403 34.8137 33.403C34.036 33.403 33.4048 32.7718 33.4048 31.9941C33.4048 31.2164 34.036 30.5852 34.8137 30.5852C37.1446 30.5852 39.0403 32.4808 39.0403 34.8118C39.0403 35.5895 38.4091 36.2207 37.6314 36.2207Z" fill="#FFB64D"/>
<path d="M31.95 50.3025C31.9493 50.3025 31.9493 50.3025 31.9486 50.3025C30.3474 50.3025 28.7589 50.0939 27.2282 49.6819C20.6318 47.9074 15.4662 42.443 14.0686 35.76C12.6456 28.9517 15.2739 21.7946 20.7643 17.5264C23.9392 15.0587 27.9425 13.6992 32.0381 13.6992C34.8734 13.6992 37.6891 14.3585 40.1814 15.6047C46.3346 18.6838 50.3119 25.1167 50.3119 31.9941C50.3119 37.6057 47.6639 43.0143 43.2288 46.4619C40.0433 48.9387 36.0365 50.3025 31.95 50.3025ZM32.0381 16.5169C28.5659 16.5169 25.1761 17.6651 22.4936 19.751C17.8465 23.3626 15.6226 29.4208 16.8271 35.1831C18.0092 40.8362 22.3795 45.4594 27.9601 46.9606C29.252 47.3079 30.594 47.4847 31.9493 47.4847H31.95C35.4144 47.4847 38.8056 46.3315 41.5001 44.2373C45.2533 41.3195 47.4949 36.742 47.4949 31.9941C47.4949 26.1748 44.1298 20.7309 38.9211 18.1251C36.8184 17.0734 34.4381 16.5169 32.0381 16.5169Z" fill="#FFB64D"/>
</svg>
