<svg width="64" height="64" viewBox="0 0 64 64" fill="none" xmlns="http://www.w3.org/2000/svg">
<path fill-rule="evenodd" clip-rule="evenodd" d="M32 64.0009C49.6731 64.0009 64 49.674 64 32.0009C64 14.3277 49.6731 0.000854492 32 0.000854492C14.3269 0.000854492 0 14.3277 0 32.0009C0 49.674 14.3269 64.0009 32 64.0009Z" fill="white"/>
<path d="M32.0663 48.8897C25.9662 48.8897 20.3124 45.6186 17.3123 40.3534C13.8512 34.2786 14.6135 26.3259 19.1671 21.0135C22.3741 17.2701 27.0805 15.1224 32.0789 15.1224C34.1062 15.1224 36.0842 15.4807 37.9594 16.1875C44.4994 18.654 48.8939 25.0089 48.8939 32.0008C48.8939 40.1795 42.8171 47.3453 34.7594 48.6701C33.8732 48.8158 32.9673 48.8897 32.0663 48.8897ZM32.0782 17.9381C27.9026 17.9381 23.9762 19.7267 21.3042 22.845C17.5101 27.2726 16.8745 33.8985 19.7577 38.9582C22.2587 43.3464 26.9749 46.0726 32.0655 46.0734H32.0663C32.8145 46.0734 33.567 46.0121 34.3026 45.891C41.0165 44.788 46.0783 38.816 46.0783 32.0008C46.0783 26.1738 42.4165 20.8783 36.9655 18.8229C35.4091 18.2358 33.7655 17.9381 32.0782 17.9381Z" fill="#4099FF"/>
<path d="M48.894 33.4087H44.6705C43.8934 33.4087 43.2627 32.778 43.2627 32.0008C43.2627 31.2237 43.8934 30.593 44.6705 30.593H48.894C49.6711 30.593 50.3018 31.2237 50.3018 32.0008C50.3018 32.778 49.6711 33.4087 48.894 33.4087Z" fill="#4099FF"/>
<path d="M31.9996 50.3025C31.2225 50.3025 30.5918 49.6718 30.5918 48.8946V44.6712C30.5918 43.8941 31.2225 43.2634 31.9996 43.2634C32.7767 43.2634 33.4074 43.8941 33.4074 44.6712V48.8946C33.4074 49.6718 32.7767 50.3025 31.9996 50.3025Z" fill="#4099FF"/>
<path d="M19.3295 33.4087H15.1061C14.3289 33.4087 13.6982 32.778 13.6982 32.0008C13.6982 31.2237 14.3289 30.593 15.1061 30.593H19.3295C20.1066 30.593 20.7373 31.2237 20.7373 32.0008C20.7373 32.778 20.1066 33.4087 19.3295 33.4087Z" fill="#4099FF"/>
<path d="M31.9996 20.7383C31.2225 20.7383 30.5918 20.1076 30.5918 19.3304V15.107C30.5918 14.3299 31.2225 13.6992 31.9996 13.6992C32.7767 13.6992 33.4074 14.3299 33.4074 15.107V19.3304C33.4074 20.1076 32.7767 20.7383 31.9996 20.7383Z" fill="#4099FF"/>
<path d="M24.3476 39.6108C24.1913 39.6108 24.0336 39.5847 23.8781 39.5298C22.9954 39.2173 22.4132 38.3789 22.428 37.4427C22.4414 36.6649 23.0756 36.0293 23.8591 36.0589C24.4919 36.0694 25.0198 36.496 25.188 37.0732C25.6709 37.4322 25.8856 38.0763 25.6744 38.6725C25.4703 39.2497 24.9269 39.6108 24.3476 39.6108Z" fill="#4099FF"/>
<path d="M23.8364 38.8738C23.828 38.8738 23.8203 38.8738 23.8125 38.8738C23.0354 38.8611 22.4153 38.2199 22.4279 37.4427C22.4413 36.6572 22.5596 35.8765 22.7785 35.1241C23.5844 32.3711 25.6729 30.3452 28.5111 29.5653C31.0867 28.8558 35.1405 28.7361 38.0864 30.7282C40.277 32.2972 41.5679 34.8073 41.5715 37.4639C41.5722 38.241 40.9429 38.8724 40.1657 38.8731C40.165 38.8731 40.1643 38.8731 40.1636 38.8731C39.3865 38.8731 38.7565 38.2438 38.7558 37.4667C38.7537 35.7146 37.902 34.0583 36.4773 33.0377C34.4943 31.6967 31.4169 31.6862 29.258 32.2789C27.3827 32.7948 26.0066 34.1189 25.4822 35.9124C25.333 36.4228 25.2534 36.9535 25.2443 37.4885C25.2309 38.2593 24.603 38.8738 23.8364 38.8738Z" fill="#4099FF"/>
<path d="M32 41.1474C29.6729 41.1474 27.3465 40.756 25.1306 39.9733L23.8783 39.5305C23.1456 39.2708 22.7612 38.4669 23.0203 37.7334C23.28 37 24.0853 36.6192 24.8173 36.8754L26.0696 37.3181C29.8932 38.6703 34.1054 38.6703 37.9291 37.3181L39.1813 36.8754C39.9148 36.6177 40.7187 37 40.9784 37.7334C41.2375 38.4669 40.8531 39.2708 40.1203 39.5305L38.8681 39.9733C36.6536 40.756 34.3272 41.1474 32 41.1474Z" fill="#4099FF"/>
<path d="M39.6508 39.6108C39.0708 39.6108 38.5267 39.249 38.3225 38.6703C38.1121 38.0734 38.3289 37.4301 38.8111 37.0718C38.9793 36.4946 39.5072 36.0687 40.14 36.0588H40.164C40.9305 36.0588 41.5577 36.6741 41.5711 37.4434C41.5859 38.3803 41.0023 39.2194 40.1189 39.5312C39.9641 39.5847 39.8064 39.6108 39.6508 39.6108Z" fill="#4099FF"/>
<path d="M31.9996 31.9367C29.1065 31.9367 26.752 29.5829 26.752 26.6891C26.752 23.7953 29.1065 21.4421 31.9996 21.4421C34.892 21.4421 37.2458 23.796 37.2458 26.6898C37.2458 29.5836 34.892 31.9367 31.9996 31.9367ZM31.9996 24.2578C30.6812 24.2578 29.5676 25.3714 29.5676 26.6898C29.5676 28.0082 30.6812 29.1218 31.9996 29.1218C33.3173 29.1218 34.4302 28.0082 34.4302 26.6898C34.4302 25.3714 33.3173 24.2578 31.9996 24.2578Z" fill="#4099FF"/>
</svg>
