<svg width="64" height="64" viewBox="0 0 64 64" fill="none" xmlns="http://www.w3.org/2000/svg">
<path fill-rule="evenodd" clip-rule="evenodd" d="M32 64.0009C49.6731 64.0009 64 49.674 64 32.0009C64 14.3277 49.6731 0.000854492 32 0.000854492C14.3269 0.000854492 0 14.3277 0 32.0009C0 49.674 14.3269 64.0009 32 64.0009Z" fill="white"/>
<path d="M48.8942 38.4558C48.1171 38.4558 47.4871 37.8265 47.4864 37.0493C47.4843 35.2846 46.6262 33.6178 45.1923 32.5894C42.8321 31.0006 38.6108 30.9859 36.1921 32.5823C35.5424 33.0103 34.6696 32.8315 34.2416 32.1825C33.8136 31.5335 33.9924 30.66 34.6407 30.232C38.0096 28.0097 43.4621 28.0301 46.7979 30.277C49.0012 31.8552 50.2978 34.3766 50.3013 37.0451C50.302 37.8222 49.6727 38.4536 48.8956 38.4543C48.8956 38.4558 48.8949 38.4558 48.8942 38.4558Z" fill="#FF5370"/>
<path d="M42.2383 40.6829C41.5118 40.6829 40.8959 40.1254 40.8368 39.3884C40.7734 38.6134 41.3506 37.9348 42.1263 37.8715C43.6693 37.7469 45.1912 37.4217 46.6504 36.9057L47.9104 36.4601C48.646 36.2011 49.4491 36.5854 49.7075 37.3182C49.9665 38.0517 49.5822 38.8556 48.8494 39.1146L47.5894 39.5602C45.9014 40.1571 44.1395 40.533 42.3537 40.6773C42.3143 40.6815 42.2763 40.6829 42.2383 40.6829Z" fill="#FF5370"/>
<path d="M21.7615 40.6829C21.7235 40.6829 21.6855 40.6815 21.6467 40.6787C19.8609 40.5337 18.099 40.1578 16.4111 39.5616L15.1518 39.116C14.419 38.8563 14.0347 38.0524 14.2937 37.3189C14.5541 36.5855 15.3594 36.2047 16.0908 36.4609L17.3501 36.9065C18.8086 37.4224 20.3304 37.7469 21.8741 37.8722C22.6498 37.9349 23.227 38.6141 23.1637 39.3891C23.1038 40.1254 22.4872 40.6829 21.7615 40.6829Z" fill="#FF5370"/>
<path d="M15.1061 38.4557C15.1054 38.4557 15.1047 38.4557 15.104 38.4557C14.3268 38.455 13.6975 37.8236 13.6982 37.0465C13.7018 34.378 14.9984 31.8566 17.1678 30.3016C20.5304 28.028 25.985 28.0076 29.3588 30.2326C30.0078 30.6606 30.1866 31.5342 29.7586 32.1832C29.3307 32.8322 28.4585 33.0117 27.8081 32.583C25.3853 30.9837 21.1646 30.9985 18.7762 32.6126C17.3741 33.6184 16.516 35.2853 16.5139 37.05C16.5132 37.8264 15.8832 38.4557 15.1061 38.4557Z" fill="#FF5370"/>
<path d="M15.6209 39.1963C15.4646 39.1963 15.307 39.1702 15.1514 39.1153C14.2673 38.8028 13.6837 37.9623 13.6985 37.0247C13.7119 36.2476 14.3447 35.5958 15.1296 35.6408C15.7624 35.6514 16.2917 36.0786 16.4593 36.6566C16.9435 37.0148 17.1596 37.6603 16.9485 38.258C16.7436 38.8359 16.2009 39.1963 15.6209 39.1963Z" fill="#FF5370"/>
<path d="M23.3142 31.4807C20.4099 31.4807 18.0469 29.1177 18.0469 26.2134C18.0469 23.3083 20.4099 20.9453 23.3142 20.9453C26.2193 20.9453 28.5823 23.3083 28.5823 26.2134C28.583 29.1177 26.2193 31.4807 23.3142 31.4807ZM23.3142 23.7602C21.9845 23.7602 20.8625 24.8837 20.8625 26.2127C20.8625 27.5417 21.9853 28.6644 23.3142 28.6644C24.6432 28.6644 25.7667 27.5417 25.7667 26.2127C25.7674 24.8837 24.6439 23.7602 23.3142 23.7602Z" fill="#FF5370"/>
<path d="M48.3802 39.1963C47.8009 39.1963 47.2582 38.8359 47.0534 38.2587C46.8408 37.661 47.0569 37.0155 47.5412 36.6573C47.708 36.0786 48.2367 35.6507 48.8709 35.6408C49.6585 35.5965 50.2893 36.2469 50.3019 37.0247C50.3167 37.9623 49.7339 38.8021 48.8505 39.1153C48.6949 39.1702 48.5358 39.1963 48.3802 39.1963Z" fill="#FF5370"/>
<path d="M40.686 31.4807C37.781 31.4807 35.418 29.1177 35.418 26.2134C35.418 23.3083 37.781 20.9453 40.686 20.9453C43.5911 20.9453 45.9541 23.3083 45.9541 26.2134C45.9541 29.1177 43.5911 31.4807 40.686 31.4807ZM40.686 23.7602C39.3563 23.7602 38.2336 24.8837 38.2336 26.2127C38.2336 27.5417 39.357 28.6644 40.686 28.6644C42.015 28.6644 43.1385 27.5417 43.1385 26.2127C43.1385 24.8837 42.0157 23.7602 40.686 23.7602Z" fill="#FF5370"/>
<path d="M22.3836 42.0907C22.2273 42.0907 22.0696 42.0647 21.914 42.0098C20.9511 41.6691 20.3155 40.7547 20.3324 39.734C20.3457 38.9562 20.994 38.3079 21.7634 38.3502C22.4392 38.3614 22.9953 38.8464 23.1213 39.4835C23.6752 39.8234 23.9364 40.5154 23.7111 41.1524C23.5063 41.7296 22.9629 42.0907 22.3836 42.0907Z" fill="#FF5370"/>
<path d="M21.7403 41.1651C21.7277 41.1651 21.7164 41.1651 21.7037 41.1651C20.9266 41.1454 20.3121 40.4992 20.3325 39.7221C20.3924 37.3647 21.1941 35.1185 22.5907 33.3975C24.3997 31.1668 27.19 29.9117 30.8834 29.6667C33.2605 29.5091 36.6759 29.7153 39.4465 31.5877C42.0974 33.4883 43.6629 36.5327 43.6678 39.7559C43.6692 40.533 43.0392 41.1644 42.2621 41.1658C42.2614 41.1658 42.2607 41.1658 42.26 41.1658C41.4829 41.1658 40.8536 40.5365 40.8522 39.7601C40.8487 37.4414 39.7224 35.2502 37.8381 33.8987C36.224 32.809 33.8138 32.2987 31.0693 32.4761C28.1896 32.6668 26.0722 33.5742 24.7777 35.1713C23.7704 36.4123 23.1918 38.0538 23.1475 39.7932C23.1278 40.5576 22.5013 41.1651 21.7403 41.1651Z" fill="#FF5370"/>
<path d="M31.9998 44.0215C29.1159 44.0215 26.2327 43.5366 23.4874 42.5666L21.9135 42.0098C21.1807 41.75 20.7964 40.9462 21.0554 40.2127C21.3159 39.4792 22.1218 39.0977 22.8525 39.3546L24.4264 39.9114C29.3102 41.6381 34.6902 41.6374 39.5732 39.9114L41.1471 39.3546C41.8799 39.097 42.6845 39.4792 42.9442 40.2127C43.2032 40.9462 42.8189 41.75 42.0861 42.0098L40.5122 42.5666C37.7669 43.5366 34.8837 44.0215 31.9998 44.0215Z" fill="#FF5370"/>
<path d="M41.6174 42.0907C41.0374 42.0907 40.4939 41.7296 40.2898 41.1517C40.0646 40.5147 40.3257 39.8234 40.8797 39.4835C41.0057 38.8464 41.5618 38.3614 42.2375 38.3502C43.0097 38.3079 43.6559 38.9562 43.6686 39.734C43.6848 40.7554 43.0491 41.6698 42.0862 42.0098C41.9313 42.064 41.7729 42.0907 41.6174 42.0907Z" fill="#FF5370"/>
<path d="M31.9997 32.4458C28.621 32.4458 25.7666 29.5914 25.7666 26.2133C25.7666 22.8346 28.6217 19.9802 31.9997 19.9802C35.3778 19.9802 38.2328 22.8346 38.2328 26.2133C38.2328 29.5914 35.3785 32.4458 31.9997 32.4458ZM31.9997 22.7952C30.147 22.7952 28.5822 24.3607 28.5822 26.2126C28.5822 28.0646 30.1477 29.6294 31.9997 29.6294C33.8517 29.6294 35.4172 28.0646 35.4172 26.2126C35.4172 24.3607 33.8524 22.7952 31.9997 22.7952Z" fill="#FF5370"/>
</svg>
