<svg width="25" height="25" viewBox="0 0 25 25" fill="none" xmlns="http://www.w3.org/2000/svg">
<path d="M18.139 8.87451C18.139 7.28321 17.5069 5.75709 16.3817 4.63187C15.2565 3.50665 13.7303 2.87451 12.139 2.87451C10.5477 2.87451 9.02162 3.50665 7.8964 4.63187C6.77118 5.75709 6.13904 7.28321 6.13904 8.87451C6.13904 15.8745 3.13904 17.8745 3.13904 17.8745H21.139C21.139 17.8745 18.139 15.8745 18.139 8.87451Z" stroke="white" stroke-width="2" stroke-linecap="round" stroke-linejoin="round"/>
<path d="M13.8691 21.8745C13.6932 22.1776 13.4409 22.4292 13.1373 22.604C12.8337 22.7789 12.4894 22.871 12.1391 22.871C11.7887 22.871 11.4444 22.7789 11.1408 22.604C10.8372 22.4292 10.5849 22.1776 10.4091 21.8745" stroke="white" stroke-width="2" stroke-linecap="round" stroke-linejoin="round"/>
</svg>
